# xmcd CD database file
# Copyright (C) 1996 Ti Kan
#
# Track frame offsets:
#  150
#  6467
#  27947
#  47042
#  66857
#  69117
#  92150
#  115392
#  136550
#  139910
#  159175
#  181602
#  198717
#  219687
#  240155
#  263090
#  287230
#
# Disc length: 4123 seconds
#
# Revision: 1
# Processed by: cddbd v1.4b41PL1 Copyright (c) Steve Scherf et al.
# Submitted via: CDWizzard Release:4.13
#
DISCID=ed101911
DTITLE=Mary J. Blige - Share My World
DYEAR=1900
DGENRE=
TTITLE0=Intro
TTITLE1=I can love you
TTITLE2=Love is all we need
TTITLE3=Round and round
TTITLE4=Share my world (interlude)
TTITLE5=Share my world
TTITLE6=Seven days
TTITLE7=It's on
TTITLE8=Thank you Lord
TTITLE9=Missing you
TTITLE10=Everything
TTITLE11=Keep your head
TTITLE12=Can't get you off my mind
TTITLE13=Get to know you better
TTITLE14=Seaqrching
TTITLE15=Our love
TTITLE16=Not gon' cry
EXTD=
EXTT0=
EXTT1=
EXTT2=
EXTT3=
EXTT4=
EXTT5=
EXTT6=
EXTT7=
EXTT8=
EXTT9=
EXTT10=
EXTT11=
EXTT12=
EXTT13=
EXTT14=
EXTT15=
EXTT16=
PLAYORDER=
